<svg width="24" height="24" viewBox="0 0 24 24" fill="none" xmlns="http://www.w3.org/2000/svg">
<circle r="3.40426" transform="matrix(-1 0 0 1 12.2129 8.40426)" stroke="#8C8C8C" stroke-width="1.5"/>
<path d="M6.25586 16.8604C6.25586 16.1282 6.71616 15.475 7.40572 15.2287V15.2287C10.5146 14.1184 13.912 14.1184 17.0209 15.2287V15.2287C17.7105 15.475 18.1708 16.1282 18.1708 16.8604V17.98C18.1708 18.9905 17.2757 19.7668 16.2753 19.6239L15.9417 19.5763C13.4687 19.223 10.958 19.223 8.48491 19.5763L8.15136 19.6239C7.15093 19.7668 6.25586 18.9905 6.25586 17.98V16.8604Z" stroke="#8C8C8C" stroke-width="1.5"/>
<path d="M17.3194 11.9022C18.7966 11.9022 19.9941 10.7047 19.9941 9.22744C19.9941 7.75021 18.7966 6.55267 17.3194 6.55267" stroke="#8C8C8C" stroke-width="1.5" stroke-linecap="round"/>
<path d="M20.251 18.0036L20.5131 18.041C21.2991 18.1533 22.0024 17.5434 22.0024 16.7493V15.8697C22.0024 15.2944 21.6407 14.7812 21.0989 14.5877C20.5585 14.3946 20.0069 14.2443 19.4492 14.1367" stroke="#8C8C8C" stroke-width="1.5" stroke-linecap="round"/>
<path d="M6.68747 11.9022C5.21023 11.9022 4.0127 10.7047 4.0127 9.22744C4.0127 7.75021 5.21023 6.55267 6.68747 6.55267" stroke="#8C8C8C" stroke-width="1.5" stroke-linecap="round"/>
<path d="M3.75777 18.0036L3.4957 18.041C2.70965 18.1533 2.00638 17.5434 2.00638 16.7493V15.8697C2.00638 15.2944 2.36804 14.7812 2.90984 14.5877C3.45029 14.3946 4.00184 14.2443 4.55957 14.1367" stroke="#8C8C8C" stroke-width="1.5" stroke-linecap="round"/>
</svg>
