<svg width="24" height="24" viewBox="0 0 24 24" fill="none" xmlns="http://www.w3.org/2000/svg">
<path d="M3.99983 14.8861H4.84983H3.99983ZM6.73274 18.0844L6.84949 17.2425L6.84949 17.2425L6.73274 18.0844ZM16.9191 18.0844L16.8023 17.2425L16.8023 17.2425L16.9191 18.0844ZM6.5888 8.08696C6.5888 5.19466 8.93346 2.85 11.8258 2.85V1.15C7.99458 1.15 4.8888 4.25578 4.8888 8.08696H6.5888ZM6.5888 10.1807V8.08696H4.8888V10.1807H6.5888ZM4.84983 14.8861C4.84983 14.4232 4.97639 13.9924 5.19631 13.6236L3.73621 12.7529C3.36365 13.3777 3.14983 14.1082 3.14983 14.8861H4.84983ZM6.84949 17.2425C5.7016 17.0833 4.84983 16.0847 4.84983 14.8861H3.14983C3.14983 16.8933 4.58847 18.6452 6.616 18.9264L6.84949 17.2425ZM11.8259 17.6729C10.3412 17.6729 8.41927 17.4601 6.84949 17.2425L6.61599 18.9264C8.19958 19.1459 10.218 19.3729 11.8259 19.3729V17.6729ZM16.8023 17.2425C15.2326 17.4601 13.3107 17.6729 11.8259 17.6729V19.3729C13.4339 19.3729 15.4523 19.1459 17.0358 18.9264L16.8023 17.2425ZM18.802 14.8861C18.802 16.0847 17.9502 17.0833 16.8023 17.2425L17.0358 18.9264C19.0634 18.6452 20.502 16.8933 20.502 14.8861H18.802ZM18.4555 13.6235C18.6754 13.9923 18.802 14.4231 18.802 14.8861H20.502C20.502 14.1082 20.2882 13.3776 19.9155 12.7528L18.4555 13.6235ZM17.0627 8.08696V10.1803H18.7627V8.08696H17.0627ZM11.8258 2.85C14.718 2.85 17.0627 5.19467 17.0627 8.08696H18.7627C18.7627 4.25578 15.6569 1.15 11.8258 1.15V2.85ZM19.9155 12.7528C19.603 12.2287 19.3274 11.8219 19.0983 11.3628C18.8802 10.926 18.7627 10.5461 18.7627 10.1803H17.0627C17.0627 10.9149 17.2998 11.5663 17.5772 12.1221C17.8435 12.6556 18.2044 13.2025 18.4555 13.6235L19.9155 12.7528ZM4.8888 10.1807C4.8888 10.5465 4.77132 10.9264 4.55333 11.3631C4.3242 11.8222 4.04869 12.2289 3.73621 12.7529L5.19631 13.6236C5.44737 13.2026 5.80813 12.6557 6.07438 12.1223C6.35177 11.5666 6.5888 10.9152 6.5888 10.1807H4.8888Z" fill="#434C63"/>
<path d="M14 20.834C13.5326 21.5369 12.7335 22.0002 11.8261 22.0002C10.9187 22.0002 10.1195 21.5369 9.65218 20.834" stroke="#434C63" stroke-width="1.5" stroke-linecap="round"/>
<circle cx="16.8857" cy="5" r="5" fill="#FF8484"/>
</svg>
